# xmcd
#
# Track frame offsets:
#	150
#	542
#	18149
#	24352
#	42154
#	57569
#	72146
#	88192
#	107246
#	122513
#	136572
#	158391
#	174136
#	189856
#	208847
#	224372
#	235448
#	249351
#	262566
#	275303
#
# Disc length: 3932
#
# Revision: 1
# Processed by: cddbd v1.5.1PL0 Copyright (c) Steve Scherf et al.
# Submitted via: audiograbber 1.82.01
# Normalized: r0:TRMNUM
#
DISCID=f60f5a14
DTITLE=DJ B.P and DJ Alligator - DJ Aligator (MTv music history)
DYEAR=1900
DGENRE=
TTITLE0=Intro
TTITLE1=Stomp!
TTITLE2=Aligator
TTITLE3=Payback time
TTITLE4=The whisle song
TTITLE5=I like to move it (ft. Dr. ALBAN)
TTITLE6=Mosquito
TTITLE7=Amleto (feat. STIG ROSSEN)
TTITLE8=Doggy style
TTITLE9=Dreams (ft. CHRISTINA UNDHJEM)
TTITLE10=Turn up the music
TTITLE11=Lollipop
TTITLE12=Welcome to future
TTITLE13=Bounce 2 this
TTITLE14=Flatline
TTITLE15=Temple of inoia
TTITLE16=Secrets of the spice
TTITLE17=Floorfilla #2
TTITLE18=Ballon
TTITLE19=Fly high (feat. ME and MY - Club mix)
EXTD=
EXTT0=
EXTT1=
EXTT2=
EXTT3=
EXTT4=
EXTT5=
EXTT6=
EXTT7=
EXTT8=
EXTT9=
EXTT10=
EXTT11=
EXTT12=
EXTT13=
EXTT14=
EXTT15=
EXTT16=
EXTT17=
EXTT18=
EXTT19=
PLAYORDER=
